# xmcd CD database file generated by Grip 2.95
# 
# Track frame offsets:
#       150
#       17423
#       32955
#       46742
#       59534
#       78350
#       92363
#       108243
#       125895
#       142959
# 
# Disc length: 2142 seconds
# 
# Revision: 3
# Processed by: cddbd v1.4PL0 Copyright (c) Steve Scherf et al.
# Submitted via: Grip 2.95
# 
DISCID=79085c0a
DTITLE=Too Blonde - Waiting for the Rain
DYEAR=1900
DGENRE=
TTITLE0=Born in a Bar
TTITLE1=Rosepetal Rain
TTITLE2=Tombstone
TTITLE3=Dungeons and Dragons
TTITLE4=Dancing on Delany St
TTITLE5=Night Demons
TTITLE6=Not in Chicago
TTITLE7=Black Kawasaki
TTITLE8=Coeur d'Alene
TTITLE9=Shadows
EXTD=
EXTT0=
EXTT1=
EXTT2=
EXTT3=
EXTT4=
EXTT5=
EXTT6=
EXTT7=
EXTT8=
EXTT9=
PLAYORDER=
